<svg width="84" height="84" viewBox="0 0 84 84" fill="none" xmlns="http://www.w3.org/2000/svg">
<g clip-path="url(#clip0_602_140)">
<path d="M41.8443 18.3069C54.8437 18.3069 65.3818 28.845 65.3818 41.8443C65.3818 54.8437 54.8437 65.3818 41.8443 65.3818C28.845 65.3818 18.3069 54.8437 18.3069 41.8443C18.3069 28.845 28.845 18.3069 41.8443 18.3069Z" fill="url(#paint0_radial_602_140)"/>
<path d="M41.8443 69.3048C44.011 69.3048 45.7673 71.0611 45.7673 73.2277V77.1506C45.7673 79.3172 44.011 81.0735 41.8443 81.0735C39.6777 81.0735 37.9214 79.3172 37.9214 77.1506V73.2277C37.9214 71.0611 39.6777 69.3048 41.8443 69.3048ZM66.8097 61.262L69.5836 64.0359C71.1155 65.5678 71.1155 68.0514 69.5836 69.5837C68.0517 71.1156 65.5678 71.1156 64.0359 69.5837L61.262 66.8098C59.7301 65.2775 59.7301 62.7939 61.262 61.262C62.7939 59.7297 65.2779 59.7297 66.8097 61.262ZM16.8789 61.262C18.4109 59.7297 20.8947 59.7297 22.4267 61.262C23.8408 62.6761 23.9496 64.9014 22.7531 66.4403L22.4267 66.8098L19.6528 69.5837C18.1208 71.1156 15.6369 71.1156 14.105 69.5837C12.6908 68.1696 12.582 65.9443 13.7786 64.4055L14.105 64.0359L16.8789 61.262ZM10.4611 37.9215C12.6276 37.9215 14.384 39.6778 14.384 41.8444C14.384 43.8563 12.8695 45.5143 10.9185 45.7409L10.4611 45.7673H6.53815C4.3716 45.7673 2.61523 44.011 2.61523 41.8444C2.61523 39.8325 4.12965 38.1745 6.08065 37.9479L6.53815 37.9215H10.4611ZM77.1505 37.9215C79.3172 37.9215 81.0734 39.6778 81.0734 41.8444C81.0734 44.011 79.3172 45.7673 77.1505 45.7673H73.2276C71.061 45.7673 69.3047 44.011 69.3047 41.8444C69.3047 39.6778 71.061 37.9215 73.2276 37.9215H77.1505ZM14.1051 14.105C15.5192 12.6909 17.7444 12.5821 19.2833 13.7787L19.6529 14.105L22.4268 16.879C23.9588 18.4109 23.9588 20.8948 22.4268 22.4268C21.0127 23.8409 18.7875 23.9497 17.2486 22.7531L16.879 22.4268L14.1051 19.6528C12.5731 18.1209 12.5731 15.637 14.1051 14.105ZM69.5836 14.1051C71.1155 15.6371 71.1155 18.121 69.5836 19.6529L66.8097 22.4269C65.2775 23.9588 62.7939 23.9588 61.262 22.4269C59.7297 20.8948 59.7297 18.411 61.262 16.879L64.0359 14.1051C65.5678 12.5731 68.0513 12.5731 69.5836 14.1051ZM41.8443 2.6153C44.011 2.6153 45.7673 4.37166 45.7673 6.53821V10.4611C45.7673 12.6277 44.011 14.384 41.8443 14.384C39.6777 14.384 37.9214 12.6277 37.9214 10.4611V6.53821C37.9214 4.37166 39.6777 2.6153 41.8443 2.6153Z" fill="url(#paint1_linear_602_140)"/>
</g>
<defs>
<radialGradient id="paint0_radial_602_140" cx="0" cy="0" r="1" gradientUnits="userSpaceOnUse" gradientTransform="translate(25.4989 24.1912) rotate(43.0203) scale(54.5474)">
<stop offset="0.193671" stop-color="#FFE475"/>
<stop offset="0.529275" stop-color="#FFB029"/>
<stop offset="0.780467" stop-color="#FF9100"/>
</radialGradient>
<linearGradient id="paint1_linear_602_140" x1="2.12487" y1="2.12493" x2="81.5638" y2="81.5639" gradientUnits="userSpaceOnUse">
<stop offset="0.166667" stop-color="#FFE475"/>
<stop offset="0.798611" stop-color="#FFBF29"/>
</linearGradient>
<clipPath id="clip0_602_140">
<rect width="83.6888" height="83.6888" fill="white"/>
</clipPath>
</defs>
</svg>
