<svg width="84" height="84" viewBox="0 0 84 84" fill="none" xmlns="http://www.w3.org/2000/svg">
<g clip-path="url(#clip0_602_136)">
<g filter="url(#filter0_i_602_136)">
<path d="M43.6044 14.5999C42.3779 11.868 44.7264 8.93968 47.6161 9.44982C63.0493 12.1741 74.7732 25.6444 74.7732 41.8605C74.7732 60.0375 60.0374 74.7733 41.8604 74.7733C25.6443 74.7733 12.174 63.0494 9.44971 47.6162C8.93952 44.7261 11.8681 42.3784 14.5998 43.6045C17.335 44.8326 20.3703 45.5175 23.5754 45.5175C35.6937 45.5175 45.5174 35.6938 45.5174 23.5755C45.5174 20.3704 44.8324 17.3351 43.6044 14.5999Z" fill="url(#paint0_linear_602_136)"/>
</g>
<g filter="url(#filter1_i_602_136)">
<path d="M16.5998 25.0375L16.8498 25.5841C17.9199 27.7978 19.6056 29.6561 21.7042 30.9361L22.0939 31.1644C22.2749 31.2663 22.2749 31.527 22.0939 31.6288L21.7042 31.8572C19.6056 33.1372 17.9199 34.9953 16.8498 37.209L16.5998 37.7555C16.5018 37.976 16.1888 37.976 16.0909 37.7555L15.8407 37.209C14.7707 34.9953 13.085 33.1372 10.9864 31.8572L10.5967 31.6288C10.4157 31.527 10.4157 31.2663 10.5967 31.1644L10.9864 30.9361C13.085 29.6561 14.7707 27.7978 15.8407 25.5841L16.0909 25.0375C16.1888 24.8171 16.5018 24.8171 16.5998 25.0375ZM27.7086 5.97866C27.8646 5.62772 28.3627 5.62772 28.5186 5.97866L28.9167 6.84861C30.62 10.3722 33.3032 13.3301 36.6438 15.3675L37.264 15.731C37.5519 15.8931 37.5519 16.3081 37.264 16.4702L36.6438 16.8336C33.3032 18.8711 30.62 21.8289 28.9167 25.3525C28.7779 25.6397 28.6482 25.931 28.5186 26.2225C28.3627 26.5734 27.8646 26.5734 27.7086 26.2225L27.3106 25.3525C25.6073 21.8289 22.9241 18.8711 19.5838 16.8336L18.9635 16.4702C18.6752 16.3081 18.6752 15.8931 18.9635 15.731L19.5838 15.3675C22.9241 13.3301 25.6073 10.3722 27.3106 6.84861L27.7086 5.97866Z" fill="url(#paint1_linear_602_136)"/>
</g>
</g>
<defs>
<filter id="filter0_i_602_136" x="9.39136" y="9.39148" width="70.8673" height="70.8673" filterUnits="userSpaceOnUse" color-interpolation-filters="sRGB">
<feFlood flood-opacity="0" result="BackgroundImageFix"/>
<feBlend mode="normal" in="SourceGraphic" in2="BackgroundImageFix" result="shape"/>
<feColorMatrix in="SourceAlpha" type="matrix" values="0 0 0 0 0 0 0 0 0 0 0 0 0 0 0 0 0 0 127 0" result="hardAlpha"/>
<feOffset dx="5.48546" dy="5.48546"/>
<feGaussianBlur stdDeviation="5.48546"/>
<feComposite in2="hardAlpha" operator="arithmetic" k2="-1" k3="1"/>
<feColorMatrix type="matrix" values="0 0 0 0 0.650967 0 0 0 0 0.522083 0 0 0 0 0.86125 0 0 0 0.7 0"/>
<feBlend mode="normal" in2="shape" result="effect1_innerShadow_602_136"/>
</filter>
<filter id="filter1_i_602_136" x="10.4609" y="5.71545" width="27.019" height="32.2054" filterUnits="userSpaceOnUse" color-interpolation-filters="sRGB">
<feFlood flood-opacity="0" result="BackgroundImageFix"/>
<feBlend mode="normal" in="SourceGraphic" in2="BackgroundImageFix" result="shape"/>
<feColorMatrix in="SourceAlpha" type="matrix" values="0 0 0 0 0 0 0 0 0 0 0 0 0 0 0 0 0 0 127 0" result="hardAlpha"/>
<feOffset/>
<feGaussianBlur stdDeviation="1.47109"/>
<feComposite in2="hardAlpha" operator="arithmetic" k2="-1" k3="1"/>
<feColorMatrix type="matrix" values="0 0 0 0 0.650967 0 0 0 0 0.522083 0 0 0 0 0.86125 0 0 0 0.7 0"/>
<feBlend mode="normal" in2="shape" result="effect1_innerShadow_602_136"/>
</filter>
<linearGradient id="paint0_linear_602_136" x1="42.0823" y1="9.39148" x2="42.0823" y2="74.7733" gradientUnits="userSpaceOnUse">
<stop stop-color="#A3A9DF"/>
<stop offset="0.853177" stop-color="#1F2FBC"/>
</linearGradient>
<linearGradient id="paint1_linear_602_136" x1="23.9704" y1="5.71545" x2="23.9704" y2="37.9208" gradientUnits="userSpaceOnUse">
<stop stop-color="#A3A9DF"/>
<stop offset="0.710722" stop-color="#1F2FBC"/>
</linearGradient>
<clipPath id="clip0_602_136">
<rect width="83.6888" height="83.6888" fill="white"/>
</clipPath>
</defs>
</svg>
